<?xml version="1.0" encoding="UTF-8" standalone="no"?>
<svg width="19px" height="19px" viewBox="0 0 19 19" version="1.1" xmlns="http://www.w3.org/2000/svg" xmlns:xlink="http://www.w3.org/1999/xlink" xmlns:sketch="http://www.bohemiancoding.com/sketch/ns">
    <!-- Generator: Sketch 3.3.2 (12043) - http://www.bohemiancoding.com/sketch -->
    <title>grid</title>
    <desc>Created with Sketch.</desc>
    <defs></defs>
    <g id="Page-1" stroke="none" stroke-width="1" fill="none" fill-rule="evenodd" sketch:type="MSPage">
        <g id="Mobile-Portrait" sketch:type="MSArtboardGroup" transform="translate(-102.000000, -576.000000)" stroke="#FFFFFF">
            <g id="grid" sketch:type="MSLayerGroup" transform="translate(103.000000, 577.000000)">
                <path d="M9.65954167,17 C9.44633333,17 9.27208333,16.82575 9.27208333,16.6139583 L9.27208333,9.65954167 C9.27208333,9.44633333 9.44633333,9.27208333 9.65954167,9.27208333 L16.611125,9.27208333 C16.82575,9.27208333 17,9.44633333 17,9.65954167 L17,16.6139583 C17,16.82575 16.82575,17 16.611125,17 L9.65954167,17 L9.65954167,17 Z M7.34045833,17 C7.55366667,17 7.72791667,16.82575 7.72791667,16.6139583 L7.72791667,9.65954167 C7.72791667,9.44633333 7.55366667,9.27208333 7.34045833,9.27208333 L0.387458333,9.27208333 C0.17425,9.27208333 0,9.44633333 0,9.65954167 L0,16.6139583 C0,16.82575 0.17425,17 0.387458333,17 L7.34045833,17 L7.34045833,17 Z M16.611125,7.7265 C16.82575,7.7265 17,7.55366667 17,7.34045833 L17,0.386041667 C17,0.173541667 16.82575,0 16.611125,0 L9.65954167,0 C9.44633333,0 9.27208333,0.173541667 9.27208333,0.386041667 L9.27208333,7.34045833 C9.27208333,7.55366667 9.44633333,7.7265 9.65954167,7.7265 L16.611125,7.7265 L16.611125,7.7265 Z M7.34045833,7.7265 C7.55366667,7.7265 7.72791667,7.55366667 7.72791667,7.34045833 L7.72791667,0.386041667 C7.72791667,0.173541667 7.55366667,0 7.34045833,0 L0.387458333,0 C0.17425,0 0,0.173541667 0,0.386041667 L0,7.34045833 C0,7.55366667 0.17425,7.7265 0.387458333,7.7265 L7.34045833,7.7265 L7.34045833,7.7265 Z" id="Shape" sketch:type="MSShapeGroup"></path>
            </g>
        </g>
    </g>
</svg>