<?xml version="1.0" encoding="UTF-8" standalone="no"?>
<svg width="26px" height="16px" viewBox="0 0 26 16" version="1.1" xmlns="http://www.w3.org/2000/svg" xmlns:xlink="http://www.w3.org/1999/xlink" xmlns:sketch="http://www.bohemiancoding.com/sketch/ns">
    <!-- Generator: Sketch 3.3.2 (12043) - http://www.bohemiancoding.com/sketch -->
    <title>list</title>
    <desc>Created with Sketch.</desc>
    <defs></defs>
    <g id="Page-1" stroke="none" stroke-width="1" fill="none" fill-rule="evenodd" sketch:type="MSPage">
        <g id="Mobile-Portrait" sketch:type="MSArtboardGroup" transform="translate(-48.000000, -578.000000)" stroke="#FFFFFF">
            <g id="list" sketch:type="MSLayerGroup" transform="translate(49.000000, 578.000000)">
                <path d="M24,14.998 C24,15.277 23.777,15.5 23.498,15.5 L5.498,15.5 C5.225,15.5 5.004,15.277 5.004,14.998 L5.004,13.001 C5.004,12.723 5.225,12.5 5.498,12.5 L23.498,12.5 C23.777,12.5 24,12.723 24,13.001 L24,14.998 L24,14.998 Z M3,14.998 C3,15.277 2.777,15.5 2.498,15.5 L0.504,15.5 C0.223,15.5 0,15.277 0,14.998 L0,13.001 C0,12.723 0.223,12.5 0.504,12.5 L2.498,12.5 C2.777,12.5 3,12.723 3,13.001 L3,14.998 L3,14.998 Z M24,8.999 C24,9.278 23.777,9.5 23.498,9.5 L5.498,9.5 C5.225,9.5 5.004,9.277 5.004,8.999 L5.004,6.999 C5.004,6.726 5.225,6.501 5.498,6.501 L23.498,6.501 C23.777,6.501 24,6.726 24,6.999 L24,8.999 L24,8.999 Z M3,8.999 C3,9.277 2.777,9.5 2.498,9.5 L0.504,9.5 C0.223,9.5 0,9.277 0,8.999 L0,6.999 C0,6.725 0.223,6.5 0.504,6.5 L2.498,6.5 C2.777,6.5 3,6.725 3,6.998 L3,8.999 L3,8.999 Z M24,3.001 C24,3.274 23.777,3.5 23.498,3.5 L5.498,3.5 C5.225,3.5 5.004,3.274 5.004,3.001 L5.004,0.998 C5.004,0.725 5.225,0.5 5.498,0.5 L23.498,0.5 C23.777,0.5 24,0.725 24,0.998 L24,3.001 L24,3.001 Z M3,3.001 C3,3.274 2.777,3.5 2.498,3.5 L0.504,3.5 C0.223,3.5 0,3.274 0,3.001 L0,0.998 C0,0.725 0.223,0.5 0.504,0.5 L2.498,0.5 C2.777,0.5 3,0.725 3,0.998 L3,3.001 L3,3.001 Z" id="Shape" sketch:type="MSShapeGroup"></path>
            </g>
        </g>
    </g>
</svg>